<?xml version="1.0" encoding="utf-8"?>
<svg version="1.1" id="Layer_1" xmlns="http://www.w3.org/2000/svg" xmlns:xlink="http://www.w3.org/1999/xlink" x="0px" y="0px"
	 viewBox="23.3 55.3 453.3 190" enable-background="new 23.3 55.3 453.3 190" xml:space="preserve">
<path fill="#FFFFFF" d="M25.1,119.9c0,15.9,6.6,25.3,20.5,25.3c17.2,0,19.8-25.9,15.3-25.9s-25,18-25-8c0-33.9,92.4-59.2,92.4-11.7
	c0,50.6-58.5,61.5-58.5,61.5l0.5,3.9c0,0-5.5,0,0,0c35.5,0,94.8-33,94.8-66c0-37.4-36.8-41.6-65.8-40.9
	C62.2,59.1,25.1,81.8,25.1,119.9z"/>
<path fill="#FFFFFF" d="M67.5,97c0-3.2,32.4-11.7,32.4,13.8c0,16.6-25.2,66.9-25.2,130.9c0,3.7-20.1,0.5-20.1-15.7
	C54.5,187.2,67.5,182.3,67.5,97z"/>
<path fill="#FFFFFF" d="M151.3,178c0,0,13.7-34.6-8.5-34.6c-15.4,0-33.8,26.3-33.8,57.1c0,21.4,9.7,29,19,29
	c11.7,0,18.8-17.6,22.5-26.1c1-2.3-2.2,20.3,10.6,20.3c36.5,0,42.7-72.3,42.7-81.5c0,0-6.9-0.9-7,6c-0.6,29.1-10.3,66.8-25.8,66.8
	c-9.4,0,4.3-42.1,4.3-66.8c0-8.9-19.7-9.3-19.7-6.4c0,7.3-10,76.3-22.6,76.8c-8.2,0.3,0-66.5,10.6-66.7
	C153.2,151.7,151.3,178,151.3,178z"/>
<path fill="#FFFFFF" d="M198.7,172.1c0-10.6,25.2-54.3,14.4-54.3c-3,0-25.7,2-25.7,17.1c0,8.8,22.4,15.1,32.9,15.1
	c5.6,0,15.1-4.8,27.8-4.8c6.4,0-4.4-12-4.4-9.3c0,18.9-29.1,72.1-40.9,72.1c-4.8,0-3-10.7,4.4-10.7c25.4,0,78.3,43.3,162.1,43.3
	c29.4,0,90.1-3.9,90.1-40.1c0-19.3-18.1-31-26.6-31c0,0,26.6,46.2-62.5,46.2c-107.4,0-129.2-28.8-157.2-28.8
	c-14.6,0-18.9,12.6-18.9,16.5c0,4,4.3,11,11.8,11c13.3,0,49.6-66.7,49.6-84.4c0-19.5-58.7,8.3-58.7,10.5c0,22.3-3.6,33.6-3.6,42.3
	C193.5,184.7,198.7,172.1,198.7,172.1z"/>
<path fill="#FFFFFF" d="M295.7,149c0,0,13.7-34.6-8.5-34.6c-15.4,0-33.8,26.3-33.8,57.1c0,21.4,9.7,29,19,29
	c11.7,0,18.8-17.6,22.5-26.1c1-2.3-2.2,20.3,10.6,20.3c30.4,0,24.2-33.2,24.2-33.2l-1.4-2c0,0-2,26.6-12.9,26.6
	c-9.4,0,4.3-42.1,4.3-66.8c0-8.9-19.7-9.3-19.7-6.4c0,7.3-10,76.3-22.6,76.8c-8.2,0.3,0-66.5,10.6-66.7
	C297.6,122.7,295.7,149,295.7,149z"/>
<path fill="#FFFFFF" d="M336.8,59.3c0,43.8-28.4,129.2-2,129.2c6,0,8-2.1,8-2.1c0-27.3,31.6-92.4,31.8-72.1
	c0.2,23.9-21.3,33.6-21.3,36.6s12.7-3.9,12.7,0.8c0,11.8-7.2,28.6,7.3,28.6c30.5,0,29.5-24.1,29.5-24.1s-9.5,13.5-16.1,13.5
	s-0.6-12.5-0.6-19.3c0-9.1-18.7-6.9-18.7-6.9s-11.8,1.6-4.1,1.6c8.5,0,33.7-15.3,33.7-32.8c0-10.3-4.6-16-12.9-16
	c-20.5,0-43.1,50.4-43.1,61.3c0,0,2,15.3,2,6.8c0-24.4,16-77.2,16-97.4C359,57.9,336.8,57.1,336.8,59.3z"/>
<path fill="#FFFFFF" d="M437,121.5c0,0,13.7-34.6-8.5-34.6c-15.4,0-33.8,26.3-33.8,57.1c0,21.4,9.7,29,19,29
	c11.7,0,18.8-17.6,22.5-26.1c1-2.3-2.2,20.3,10.6,20.3c24.7,0,31.8-25.6,26.8-25.6c-2,0-6.3,16.9-16.9,16.9
	c-9.4,0,4.3-42.1,4.3-66.8c0-8.9-19.7-9.3-19.7-6.4c0,7.3-10,76.3-22.6,76.8c-8.2,0.3,0-66.5,10.6-66.7
	C438.9,95.2,437,121.5,437,121.5z"/>
</svg>
